<svg xmlns="http://www.w3.org/2000/svg" width="512" height="512" viewBox="0 0 43 43" shape-rendering="crispEdges"><path fill="#ffffff" d="M0 0h43v43H0z"/><path stroke="#0a0e1a" d="M1 1.5h7m1 0h1m2 0h1m1 0h1m2 0h1m1 0h1m2 0h3m5 0h3m2 0h7M1 2.5h1m5 0h1m1 0h2m2 0h1m3 0h2m4 0h1m1 0h1m2 0h1m6 0h1m5 0h1M1 3.5h1m1 0h3m1 0h1m1 0h3m4 0h1m4 0h2m4 0h1m1 0h1m2 0h2m1 0h1m1 0h3m1 0h1M1 4.5h1m1 0h3m1 0h1m2 0h4m1 0h1m2 0h3m1 0h1m2 0h1m4 0h4m1 0h1m1 0h3m1 0h1M1 5.5h1m1 0h3m1 0h1m2 0h5m2 0h2m1 0h1m2 0h1m1 0h2m2 0h1m2 0h2m1 0h1m1 0h3m1 0h1M1 6.5h1m5 0h1m1 0h3m3 0h1m2 0h1m1 0h2m1 0h2m3 0h3m2 0h1m1 0h1m5 0h1M1 7.5h7m1 0h1m1 0h1m1 0h1m1 0h1m1 0h1m1 0h1m1 0h1m1 0h1m1 0h1m1 0h1m1 0h1m1 0h1m1 0h1m1 0h7M9 8.5h1m1 0h1m1 0h1m5 0h3m1 0h1m8 0h2M3 9.5h3m1 0h1m1 0h3m1 0h2m1 0h3m1 0h1m4 0h2m1 0h1m1 0h1m1 0h5m2 0h3M1 10.5h2m5 0h3m1 0h5m1 0h2m1 0h2m1 0h1m1 0h1m2 0h1m2 0h2m2 0h2m1 0h1m1 0h1M1 11.5h9m2 0h1m1 0h1m3 0h2m1 0h3m1 0h2m1 0h4m1 0h2m1 0h2M2 12.5h1m1 0h2m2 0h1m3 0h3m3 0h3m2 0h1m3 0h1m1 0h1m2 0h2m1 0h1m1 0h2M2 13.5h2m3 0h1m1 0h1m1 0h1m2 0h3m2 0h1m2 0h2m1 0h1m2 0h3m1 0h2m4 0h3M4 14.5h2m2 0h1m1 0h4m1 0h5m3 0h1m1 0h3m2 0h3m1 0h5m2 0h1M2 15.5h1m1 0h4m1 0h1m1 0h4m1 0h1m1 0h6m2 0h1m1 0h1m1 0h2m2 0h1m3 0h2M1 16.5h5m15 0h1m2 0h2m2 0h2m3 0h1m1 0h2m1 0h1m2 0h1M2 17.5h2m3 0h1m2 0h1m1 0h1m3 0h1m1 0h2m3 0h1m1 0h3m6 0h1m1 0h1m2 0h1m1 0h1M1 18.5h1m1 0h1m6 0h4m1 0h1m1 0h1m1 0h1m2 0h2m1 0h1m3 0h1m1 0h1m1 0h1m1 0h3m2 0h2M2 19.5h1m3 0h2m4 0h1m4 0h3m1 0h3m1 0h1m2 0h2m1 0h1m1 0h2m2 0h2M1 20.5h1m1 0h3m3 0h2m2 0h1m2 0h2m4 0h1m3 0h1m2 0h1m1 0h1m1 0h1m1 0h1m1 0h1m3 0h1M5 21.5h1m1 0h1m1 0h4m1 0h1m1 0h2m4 0h1m1 0h3m3 0h1m7 0h2m1 0h1M5 22.5h1m4 0h1m2 0h1m1 0h1m3 0h3m4 0h1m2 0h1m2 0h1m1 0h2m1 0h2m1 0h2M1 23.5h3m1 0h1m1 0h1m1 0h1m2 0h2m1 0h1m2 0h2m4 0h2m1 0h2m1 0h1m2 0h4m2 0h1M1 24.5h3m1 0h1m5 0h1m1 0h7m3 0h4m6 0h1m3 0h2m1 0h2M2 25.5h10m1 0h1m2 0h1m1 0h4m2 0h1m1 0h3m1 0h1m1 0h1m4 0h1m1 0h3M1 26.5h3m5 0h1m1 0h2m1 0h1m1 0h1m2 0h2m2 0h1m1 0h1m3 0h1m2 0h1m3 0h3m1 0h2M1 27.5h1m1 0h3m1 0h1m3 0h6m2 0h4m1 0h1m1 0h3m4 0h1m1 0h2M1 28.5h1m2 0h1m1 0h1m1 0h1m1 0h1m3 0h3m3 0h1m1 0h1m3 0h1m2 0h1m2 0h3m3 0h1m2 0h1M2 29.5h2m2 0h2m1 0h4m2 0h1m1 0h1m4 0h2m1 0h3m2 0h1m1 0h1m5 0h4M1 30.5h4m1 0h1m2 0h2m4 0h1m7 0h5m2 0h4m1 0h1m1 0h3m1 0h1M1 31.5h1m1 0h1m1 0h7m1 0h3m2 0h3m1 0h4m2 0h1m5 0h4m2 0h1M1 32.5h1m1 0h1m1 0h2m4 0h2m1 0h2m2 0h2m2 0h1m1 0h2m2 0h1m2 0h2m1 0h5m1 0h1M1 33.5h1m2 0h1m1 0h2m1 0h1m2 0h1m5 0h1m2 0h2m1 0h2m2 0h1m1 0h1m2 0h5m1 0h3M9 34.5h2m2 0h6m1 0h1m1 0h1m1 0h1m4 0h2m2 0h1m3 0h5M1 35.5h7m2 0h1m1 0h1m1 0h2m1 0h1m3 0h3m1 0h1m1 0h3m1 0h1m1 0h1m1 0h1m1 0h2M1 36.5h1m5 0h1m2 0h1m1 0h1m1 0h1m2 0h1m2 0h2m1 0h2m1 0h1m1 0h1m2 0h3m3 0h2m2 0h1M1 37.5h1m1 0h3m1 0h1m1 0h1m1 0h4m2 0h3m1 0h3m1 0h2m2 0h3m1 0h5m3 0h1M1 38.5h1m1 0h3m1 0h1m1 0h1m1 0h1m4 0h1m1 0h2m1 0h2m1 0h1m4 0h1m3 0h2m1 0h1m2 0h1m1 0h1M1 39.5h1m1 0h3m1 0h1m1 0h3m2 0h3m1 0h5m2 0h6m2 0h6m1 0h1M1 40.5h1m5 0h1m2 0h2m5 0h1m1 0h2m1 0h1m1 0h2m2 0h1m4 0h1m1 0h1m1 0h2m1 0h1M1 41.5h7m3 0h3m3 0h1m1 0h1m1 0h4m1 0h1m1 0h1m1 0h3m2 0h5"/></svg>
