<svg xmlns="http://www.w3.org/2000/svg" width="512" height="512" viewBox="0 0 135 135" shape-rendering="crispEdges"><path fill="#ffffff" d="M0 0h135v135H0z"/><path stroke="#0a0e1a" d="M1 1.5h7m1 0h2m1 0h1m1 0h2m3 0h2m1 0h2m2 0h1m3 0h2m3 0h1m2 0h1m1 0h3m4 0h2m2 0h1m3 0h2m2 0h2m2 0h4m3 0h1m1 0h1m1 0h1m1 0h2m1 0h1m1 0h2m2 0h1m1 0h3m1 0h1m2 0h1m1 0h3m1 0h1m2 0h1m1 0h2m1 0h2m2 0h2m1 0h4m1 0h1m1 0h4m1 0h7M1 2.5h1m5 0h1m1 0h1m1 0h4m1 0h2m3 0h3m4 0h1m3 0h3m3 0h1m2 0h4m1 0h1m1 0h1m5 0h1m5 0h3m1 0h1m4 0h1m1 0h2m1 0h2m2 0h1m2 0h2m2 0h2m3 0h2m3 0h1m2 0h1m1 0h4m2 0h1m1 0h1m3 0h5m2 0h1m3 0h3m1 0h1m5 0h1M1 3.5h1m1 0h3m1 0h1m1 0h1m1 0h1m1 0h3m2 0h5m1 0h2m2 0h1m1 0h1m2 0h1m1 0h1m2 0h2m1 0h1m3 0h1m2 0h1m1 0h1m1 0h1m1 0h2m1 0h2m1 0h1m1 0h1m4 0h1m5 0h1m1 0h3m1 0h1m1 0h1m1 0h1m1 0h1m1 0h1m1 0h3m1 0h1m2 0h2m3 0h3m2 0h1m2 0h1m1 0h2m3 0h1m1 0h1m2 0h2m2 0h1m1 0h1m1 0h3m1 0h1M1 4.5h1m1 0h3m1 0h1m4 0h1m5 0h1m1 0h1m2 0h1m1 0h1m2 0h1m2 0h1m2 0h1m1 0h1m1 0h1m2 0h1m4 0h1m1 0h1m2 0h1m4 0h2m2 0h3m3 0h5m4 0h1m1 0h1m1 0h1m1 0h1m5 0h2m2 0h4m3 0h1m1 0h3m2 0h1m2 0h2m1 0h2m2 0h3m1 0h5m3 0h1m1 0h3m1 0h1M1 5.5h1m1 0h3m1 0h1m3 0h1m1 0h2m2 0h1m1 0h3m1 0h1m1 0h9m2 0h3m1 0h1m1 0h1m1 0h1m5 0h1m1 0h7m2 0h6m1 0h2m1 0h4m1 0h7m2 0h1m3 0h1m3 0h2m6 0h5m2 0h2m1 0h1m1 0h1m1 0h3m1 0h2m2 0h1m1 0h1m1 0h1m1 0h3m1 0h1M1 6.5h1m5 0h1m1 0h5m1 0h1m1 0h5m4 0h2m1 0h1m3 0h2m1 0h2m1 0h3m1 0h4m3 0h1m1 0h2m3 0h2m5 0h2m3 0h4m1 0h2m1 0h1m3 0h2m1 0h4m3 0h1m1 0h1m2 0h3m1 0h2m3 0h2m1 0h1m2 0h2m1 0h1m1 0h2m3 0h1m1 0h2m2 0h1m5 0h1M1 7.5h7m1 0h1m1 0h1m1 0h1m1 0h1m1 0h1m1 0h1m1 0h1m1 0h1m1 0h1m1 0h1m1 0h1m1 0h1m1 0h1m1 0h1m1 0h1m1 0h1m1 0h1m1 0h1m1 0h1m1 0h1m1 0h1m1 0h1m1 0h1m1 0h1m1 0h1m1 0h1m1 0h1m1 0h1m1 0h1m1 0h1m1 0h1m1 0h1m1 0h1m1 0h1m1 0h1m1 0h1m1 0h1m1 0h1m1 0h1m1 0h1m1 0h1m1 0h1m1 0h1m1 0h1m1 0h1m1 0h1m1 0h1m1 0h1m1 0h1m1 0h1m1 0h1m1 0h1m1 0h1m1 0h1m1 0h1m1 0h1m1 0h1m1 0h1m1 0h1m1 0h7M9 8.5h1m2 0h4m1 0h1m1 0h1m2 0h3m4 0h1m3 0h1m5 0h1m1 0h6m1 0h2m2 0h2m3 0h3m1 0h2m2 0h2m1 0h1m1 0h5m1 0h2m3 0h2m1 0h7m2 0h2m3 0h1m2 0h1m3 0h2m2 0h1m2 0h2m2 0h3M3 9.5h3m1 0h1m1 0h1m2 0h2m2 0h3m3 0h2m1 0h1m1 0h9m3 0h1m2 0h5m3 0h1m1 0h6m1 0h2m1 0h3m3 0h2m4 0h1m1 0h8m3 0h2m1 0h4m2 0h1m1 0h1m1 0h7m4 0h3m3 0h1m1 0h3m1 0h1m2 0h3m2 0h3M1 10.5h6m2 0h2m3 0h2m3 0h2m2 0h4m2 0h1m3 0h9m1 0h1m4 0h1m1 0h1m1 0h1m1 0h3m5 0h1m2 0h1m1 0h1m1 0h1m2 0h2m3 0h1m3 0h1m1 0h2m2 0h1m1 0h2m1 0h1m1 0h2m2 0h2m3 0h1m1 0h1m2 0h2m2 0h2m3 0h2m1 0h1m9 0h4M2 11.5h1m4 0h2m10 0h1m1 0h1m2 0h2m1 0h2m1 0h3m1 0h2m2 0h4m1 0h2m1 0h4m1 0h1m1 0h1m1 0h1m1 0h2m1 0h1m2 0h2m1 0h3m1 0h2m1 0h1m1 0h1m4 0h2m1 0h1m1 0h2m1 0h1m3 0h2m2 0h2m1 0h2m3 0h1m1 0h3m3 0h4m1 0h3m1 0h1m1 0h2m1 0h1m1 0h1m2 0h3M3 12.5h3m2 0h1m3 0h1m4 0h1m3 0h1m2 0h2m1 0h1m1 0h1m1 0h2m1 0h1m5 0h3m1 0h2m2 0h2m1 0h1m1 0h1m1 0h3m2 0h4m1 0h2m1 0h1m1 0h1m2 0h2m1 0h1m5 0h1m2 0h1m4 0h2m1 0h1m5 0h1m3 0h2m1 0h3m3 0h1m5 0h5m1 0h10M2 13.5h2m1 0h1m1 0h1m1 0h3m1 0h2m1 0h1m3 0h2m1 0h2m2 0h6m1 0h2m4 0h1m2 0h2m1 0h1m3 0h2m1 0h1m1 0h1m1 0h4m1 0h4m4 0h1m6 0h2m1 0h2m1 0h6m1 0h2m6 0h1m1 0h1m1 0h1m3 0h2m1 0h1m1 0h2m1 0h1m3 0h1m1 0h2m5 0h1m2 0h1M2 14.5h2m2 0h1m2 0h1m3 0h5m2 0h1m1 0h1m1 0h2m2 0h4m5 0h2m1 0h2m2 0h2m1 0h2m1 0h4m1 0h2m1 0h1m2 0h1m1 0h3m2 0h2m1 0h3m1 0h2m2 0h5m1 0h1m1 0h3m1 0h2m1 0h1m2 0h2m5 0h3m1 0h2m1 0h3m10 0h2m2 0h6M1 15.5h1m2 0h2m1 0h1m1 0h1m2 0h1m2 0h3m3 0h3m1 0h7m3 0h2m1 0h1m6 0h5m2 0h1m1 0h1m2 0h2m1 0h3m3 0h1m1 0h3m3 0h1m1 0h1m2 0h4m1 0h1m1 0h1m3 0h2m1 0h2m3 0h1m4 0h2m1 0h1m1 0h2m1 0h3m1 0h3m3 0h1m5 0h2m2 0h3M2 16.5h2m2 0h1m3 0h2m1 0h3m4 0h2m5 0h2m1 0h1m1 0h1m1 0h1m1 0h2m1 0h1m2 0h2m1 0h2m2 0h1m1 0h1m1 0h1m1 0h2m1 0h1m2 0h4m1 0h1m2 0h1m1 0h1m4 0h1m1 0h2m4 0h2m1 0h1m2 0h2m1 0h2m5 0h6m3 0h1m1 0h4m3 0h1m6 0h1m1 0h2m3 0h2M2 17.5h1m1 0h4m2 0h1m1 0h1m2 0h1m1 0h1m4 0h5m1 0h9m2 0h1m1 0h1m3 0h2m1 0h1m2 0h1m2 0h2m3 0h1m2 0h1m1 0h1m2 0h2m1 0h3m2 0h1m1 0h1m1 0h1m1 0h2m1 0h3m1 0h1m2 0h2m1 0h5m1 0h3m1 0h1m4 0h4m1 0h1m1 0h1m2 0h1m6 0h1m2 0h1m3 0h1M1 18.5h1m1 0h4m1 0h4m3 0h4m4 0h1m2 0h1m1 0h1m3 0h4m2 0h1m1 0h1m4 0h2m1 0h4m1 0h4m1 0h2m1 0h1m2 0h1m1 0h3m1 0h1m5 0h1m2 0h2m1 0h7m4 0h1m5 0h1m2 0h2m1 0h4m2 0h1m4 0h1m2 0h2m1 0h2m1 0h1m2 0h4m1 0h1M4 19.5h1m2 0h1m1 0h1m1 0h1m1 0h4m1 0h1m1 0h3m1 0h6m4 0h2m2 0h4m1 0h1m4 0h1m2 0h1m1 0h1m1 0h3m1 0h1m2 0h1m4 0h1m4 0h1m1 0h4m1 0h1m1 0h2m2 0h2m2 0h3m1 0h2m1 0h4m2 0h3m1 0h1m2 0h1m1 0h1m3 0h3m3 0h2m2 0h1m1 0h2m2 0h1M6 20.5h1m1 0h1m4 0h2m5 0h3m1 0h1m1 0h3m1 0h1m1 0h2m1 0h1m2 0h2m2 0h1m1 0h1m1 0h3m1 0h3m1 0h2m1 0h1m2 0h4m1 0h3m1 0h1m4 0h6m5 0h2m4 0h1m5 0h3m1 0h4m1 0h1m2 0h1m4 0h1m3 0h1m8 0h3m1 0h2M1 21.5h4m2 0h2m1 0h1m1 0h2m3 0h1m1 0h1m2 0h1m3 0h1m2 0h4m1 0h2m1 0h2m4 0h4m1 0h1m2 0h3m2 0h2m1 0h4m3 0h6m2 0h1m5 0h2m1 0h2m1 0h1m1 0h1m1 0h2m2 0h2m8 0h2m3 0h3m1 0h1m2 0h2m1 0h3m1 0h7M1 22.5h1m1 0h1m1 0h2m3 0h1m1 0h1m1 0h1m1 0h5m3 0h1m1 0h4m3 0h2m2 0h1m1 0h1m3 0h1m2 0h3m1 0h3m1 0h1m1 0h3m2 0h1m1 0h1m3 0h2m1 0h1m1 0h1m1 0h2m1 0h3m4 0h2m10 0h2m1 0h3m5 0h1m4 0h1m1 0h1m1 0h1m1 0h3m2 0h3m1 0h1m1 0h5M1 23.5h1m4 0h4m2 0h1m3 0h1m1 0h2m1 0h3m1 0h1m1 0h1m3 0h1m4 0h1m2 0h5m2 0h2m1 0h1m1 0h6m1 0h2m3 0h2m1 0h1m2 0h1m1 0h3m1 0h2m5 0h3m1 0h5m2 0h2m2 0h7m1 0h2m2 0h1m3 0h3m2 0h2m1 0h2m1 0h2M1 24.5h1m1 0h1m1 0h2m1 0h1m1 0h1m2 0h1m1 0h2m1 0h1m1 0h8m2 0h4m1 0h3m3 0h1m1 0h4m1 0h4m2 0h1m4 0h3m2 0h2m2 0h2m1 0h5m2 0h1m1 0h2m2 0h1m1 0h6m2 0h3m2 0h2m2 0h1m1 0h3m3 0h2m2 0h2m1 0h1m1 0h3m1 0h4m1 0h1m2 0h2M2 25.5h1m3 0h5m2 0h2m2 0h4m2 0h2m2 0h1m1 0h1m1 0h2m2 0h1m1 0h1m3 0h1m3 0h3m1 0h1m2 0h2m1 0h3m1 0h1m4 0h1m2 0h2m2 0h1m2 0h1m3 0h1m3 0h1m2 0h3m1 0h3m8 0h3m2 0h1m1 0h2m2 0h1m2 0h3m1 0h1m1 0h2m2 0h3M3 26.5h1m5 0h1m3 0h3m1 0h3m3 0h2m2 0h2m2 0h1m2 0h1m3 0h1m4 0h1m4 0h3m2 0h3m3 0h2m1 0h1m3 0h3m1 0h1m2 0h2m3 0h3m7 0h1m2 0h1m5 0h2m1 0h2m5 0h1m1 0h2m1 0h1m1 0h4m4 0h5m4 0h3M1 27.5h2m2 0h1m1 0h4m2 0h1m1 0h1m3 0h1m2 0h1m1 0h1m1 0h2m2 0h4m2 0h3m2 0h1m3 0h4m1 0h2m4 0h2m4 0h1m1 0h1m1 0h5m1 0h2m2 0h1m1 0h1m1 0h1m1 0h1m4 0h2m1 0h3m1 0h1m1 0h1m6 0h2m3 0h1m2 0h4m5 0h3m3 0h1m3 0h3M2 28.5h1m2 0h1m3 0h4m3 0h3m2 0h1m1 0h2m1 0h2m1 0h4m1 0h1m1 0h2m1 0h2m1 0h5m2 0h1m1 0h4m5 0h1m1 0h1m2 0h1m3 0h1m1 0h1m1 0h3m1 0h5m2 0h1m3 0h4m1 0h1m1 0h3m2 0h1m1 0h3m1 0h2m1 0h1m4 0h1m3 0h1m1 0h1m2 0h2m1 0h2m4 0h2M1 29.5h1m3 0h10m5 0h3m1 0h3m2 0h5m1 0h3m4 0h2m1 0h2m1 0h1m2 0h1m1 0h10m5 0h1m1 0h1m1 0h2m1 0h10m1 0h4m1 0h1m1 0h1m2 0h3m2 0h5m1 0h4m1 0h1m1 0h1m3 0h3m1 0h1m2 0h9M5 30.5h1m3 0h2m1 0h3m1 0h1m4 0h1m1 0h2m3 0h2m3 0h2m2 0h2m1 0h1m1 0h1m1 0h1m1 0h2m5 0h1m3 0h4m2 0h5m4 0h1m1 0h4m3 0h1m1 0h1m1 0h1m11 0h1m1 0h1m1 0h1m3 0h1m1 0h2m2 0h1m1 0h1m4 0h1m2 0h2m1 0h2m3 0h2m1 0h2M1 31.5h1m1 0h3m1 0h1m1 0h3m2 0h5m3 0h1m2 0h5m1 0h1m1 0h1m1 0h1m3 0h1m3 0h4m2 0h1m2 0h2m1 0h1m1 0h1m2 0h1m5 0h1m1 0h1m1 0h3m3 0h2m1 0h1m1 0h1m3 0h2m3 0h1m2 0h2m1 0h1m1 0h4m1 0h1m1 0h1m5 0h1m1 0h3m2 0h1m2 0h2m2 0h1m1 0h1m1 0h2m1 0h2M1 32.5h1m2 0h2m3 0h1m2 0h3m2 0h3m1 0h1m2 0h1m2 0h1m1 0h1m3 0h2m7 0h2m2 0h1m5 0h2m3 0h6m1 0h1m1 0h2m5 0h1m1 0h3m3 0h1m1 0h2m3 0h3m2 0h1m1 0h1m1 0h3m1 0h1m3 0h3m4 0h1m3 0h1m3 0h2m1 0h3m3 0h2M1 33.5h1m3 0h6m2 0h4m2 0h1m1 0h3m1 0h1m1 0h1m1 0h5m1 0h1m1 0h1m1 0h1m1 0h5m1 0h1m1 0h3m1 0h5m2 0h5m4 0h1m2 0h10m2 0h1m1 0h1m1 0h1m1 0h3m3 0h1m3 0h8m1 0h3m1 0h1m1 0h1m5 0h1m3 0h6m1 0h1M2 34.5h1m1 0h1m4 0h1m1 0h1m2 0h6m4 0h1m4 0h2m1 0h1m1 0h1m2 0h1m1 0h1m3 0h7m1 0h1m2 0h6m1 0h2m3 0h1m3 0h1m1 0h2m1 0h1m1 0h1m1 0h3m2 0h1m2 0h1m1 0h2m1 0h1m3 0h1m2 0h2m2 0h2m1 0h3m3 0h1m1 0h3m1 0h1m1 0h1m1 0h1m1 0h2m1 0h1m1 0h1m2 0h2M4 35.5h1m1 0h2m3 0h1m3 0h1m1 0h3m1 0h2m2 0h2m1 0h4m1 0h1m5 0h1m2 0h1m2 0h1m1 0h1m3 0h3m4 0h2m1 0h1m5 0h2m1 0h3m1 0h5m2 0h1m1 0h1m1 0h1m1 0h3m2 0h1m1 0h6m1 0h1m1 0h1m1 0h1m2 0h2m2 0h1m1 0h3m3 0h1m1 0h1m1 0h2m4 0h1M2 36.5h4m2 0h1m4 0h3m3 0h2m1 0h2m1 0h3m2 0h1m5 0h2m4 0h2m2 0h2m1 0h2m3 0h5m2 0h1m2 0h1m1 0h2m1 0h2m1 0h3m1 0h1m2 0h2m1 0h2m1 0h2m2 0h7m3 0h1m3 0h2m1 0h1m4 0h1m2 0h1m3 0h2m1 0h6m2 0h2m2 0h1M2 37.5h4m1 0h1m3 0h2m1 0h1m1 0h2m1 0h18m1 0h2m1 0h3m2 0h1m1 0h2m1 0h1m2 0h2m2 0h2m2 0h2m8 0h2m1 0h4m1 0h1m7 0h5m1 0h1m1 0h2m2 0h2m1 0h1m1 0h2m4 0h3m1 0h1m1 0h1m1 0h2m6 0h1m2 0h1m1 0h1M1 38.5h1m1 0h2m1 0h1m1 0h4m2 0h1m5 0h1m2 0h1m2 0h2m2 0h1m2 0h1m1 0h1m1 0h1m1 0h1m1 0h1m1 0h1m7 0h1m1 0h1m5 0h3m3 0h3m1 0h2m3 0h3m1 0h2m1 0h2m1 0h4m1 0h1m1 0h1m3 0h3m1 0h2m2 0h2m1 0h1m1 0h1m2 0h2m1 0h1m3 0h1m2 0h1m1 0h2m3 0h2m1 0h3M1 39.5h1m1 0h6m1 0h1m2 0h2m3 0h2m4 0h4m1 0h4m1 0h1m1 0h1m3 0h3m1 0h3m2 0h1m2 0h2m5 0h1m2 0h1m1 0h4m1 0h14m1 0h2m2 0h2m1 0h6m1 0h2m2 0h2m1 0h1m1 0h1m1 0h1m1 0h6m7 0h3m2 0h1m1 0h2M3 40.5h2m1 0h1m1 0h3m3 0h1m1 0h4m1 0h1m1 0h1m1 0h1m1 0h4m5 0h1m1 0h1m1 0h1m2 0h2m1 0h1m1 0h1m1 0h1m2 0h2m3 0h3m1 0h1m2 0h1m1 0h2m2 0h1m5 0h1m4 0h1m1 0h1m1 0h1m1 0h4m3 0h5m2 0h1m1 0h1m1 0h3m5 0h1m1 0h1m1 0h1m1 0h2m1 0h4m1 0h1m1 0h4M1 41.5h1m2 0h2m1 0h1m1 0h1m1 0h1m1 0h1m5 0h1m2 0h1m1 0h1m1 0h1m1 0h1m1 0h1m1 0h3m2 0h1m3 0h6m1 0h3m1 0h1m1 0h3m2 0h1m1 0h1m1 0h1m1 0h6m2 0h2m1 0h1m3 0h3m2 0h3m2 0h2m3 0h1m2 0h1m2 0h3m1 0h5m1 0h1m3 0h2m2 0h1m2 0h1m2 0h1m4 0h1m1 0h2M2 42.5h2m1 0h2m2 0h3m1 0h1m1 0h1m1 0h3m4 0h1m5 0h1m2 0h1m1 0h3m1 0h1m1 0h1m3 0h2m1 0h4m4 0h2m3 0h1m1 0h1m1 0h1m4 0h1m2 0h2m1 0h1m2 0h3m1 0h1m4 0h2m3 0h3m1 0h4m3 0h1m1 0h3m9 0h2m2 0h3m1 0h1m1 0h1m2 0h1m1 0h1M1 43.5h2m1 0h5m3 0h5m1 0h2m4 0h1m1 0h2m1 0h3m1 0h3m4 0h1m5 0h5m3 0h1m1 0h1m1 0h1m1 0h6m14 0h1m1 0h2m1 0h4m1 0h1m2 0h2m2 0h2m1 0h1m11 0h1m1 0h3m2 0h1m1 0h2m2 0h5m1 0h1M1 44.5h2m2 0h2m3 0h1m1 0h3m2 0h1m2 0h2m1 0h1m1 0h2m4 0h2m1 0h1m1 0h2m1 0h3m1 0h1m1 0h2m1 0h1m1 0h9m3 0h2m1 0h3m3 0h1m1 0h2m2 0h6m1 0h4m5 0h3m1 0h1m3 0h4m1 0h2m3 0h1m3 0h4m1 0h3m4 0h1m2 0h1m1 0h1M1 45.5h1m5 0h1m1 0h1m2 0h3m3 0h2m1 0h3m1 0h3m1 0h2m2 0h1m1 0h1m1 0h2m7 0h5m2 0h2m3 0h4m2 0h1m3 0h1m7 0h2m1 0h5m3 0h1m1 0h3m9 0h2m1 0h2m1 0h1m2 0h2m1 0h3m1 0h3m5 0h1m2 0h4M2 46.5h3m1 0h1m2 0h1m1 0h1m3 0h1m1 0h3m1 0h2m1 0h1m1 0h4m5 0h3m4 0h1m1 0h1m1 0h2m2 0h1m1 0h1m2 0h1m3 0h2m1 0h4m1 0h3m1 0h1m2 0h1m1 0h2m3 0h1m1 0h4m3 0h1m3 0h4m1 0h2m2 0h8m2 0h2m1 0h3m4 0h2m3 0h1m1 0h4M1 47.5h7m2 0h1m1 0h1m2 0h4m1 0h1m3 0h4m1 0h5m1 0h1m2 0h1m3 0h1m2 0h1m1 0h2m2 0h1m1 0h1m2 0h2m3 0h1m4 0h1m1 0h1m1 0h1m2 0h4m3 0h1m1 0h1m2 0h2m2 0h1m2 0h4m2 0h1m1 0h3m1 0h2m4 0h6m1 0h1m1 0h1m1 0h2m3 0h1m2 0h2M2 48.5h3m3 0h1m1 0h1m3 0h2m1 0h1m1 0h1m2 0h5m1 0h2m1 0h3m2 0h1m2 0h1m3 0h1m4 0h1m1 0h3m1 0h1m2 0h3m4 0h3m1 0h4m1 0h2m1 0h1m1 0h1m2 0h2m1 0h1m1 0h2m1 0h5m2 0h1m3 0h1m2 0h2m1 0h2m3 0h1m8 0h4m2 0h2m4 0h1M1 49.5h1m2 0h1m2 0h1m4 0h2m2 0h1m1 0h6m4 0h1m1 0h3m1 0h3m3 0h1m3 0h1m2 0h2m1 0h5m4 0h2m1 0h2m2 0h1m5 0h1m4 0h2m6 0h1m4 0h2m2 0h1m5 0h2m2 0h4m1 0h3m1 0h1m2 0h1m1 0h1m2 0h2m1 0h1m3 0h3M1 50.5h1m2 0h3m1 0h2m1 0h2m3 0h2m1 0h4m2 0h2m2 0h3m1 0h1m1 0h1m1 0h2m2 0h1m1 0h3m2 0h2m1 0h1m2 0h2m3 0h1m1 0h3m1 0h1m3 0h1m2 0h1m1 0h1m4 0h2m3 0h1m2 0h1m5 0h5m1 0h1m1 0h1m2 0h1m1 0h2m2 0h1m1 0h1m1 0h5m2 0h1m1 0h2m1 0h2m3 0h3M1 51.5h1m1 0h1m3 0h1m2 0h1m2 0h1m1 0h1m1 0h1m1 0h1m1 0h2m5 0h2m1 0h2m3 0h1m2 0h1m1 0h6m9 0h1m2 0h1m3 0h2m1 0h1m3 0h1m1 0h4m4 0h3m2 0h1m1 0h2m1 0h1m2 0h1m2 0h2m2 0h3m9 0h2m1 0h1m4 0h1m4 0h2m1 0h1m1 0h3M1 52.5h2m1 0h3m2 0h3m2 0h2m1 0h1m3 0h7m1 0h1m2 0h1m1 0h1m3 0h3m1 0h1m3 0h1m4 0h3m3 0h3m1 0h1m1 0h6m1 0h2m1 0h3m1 0h1m1 0h1m6 0h5m2 0h4m5 0h1m1 0h1m1 0h2m1 0h1m1 0h1m3 0h1m1 0h2m1 0h4m2 0h3m3 0h2M1 53.5h1m1 0h7m1 0h1m1 0h1m1 0h1m2 0h1m1 0h1m1 0h1m2 0h1m2 0h6m3 0h1m1 0h2m1 0h1m1 0h1m1 0h2m2 0h1m1 0h6m1 0h2m1 0h1m3 0h2m2 0h2m3 0h1m1 0h8m1 0h1m1 0h1m1 0h2m2 0h1m5 0h9m1 0h3m4 0h5m1 0h1m1 0h9M2 54.5h1m1 0h2m3 0h2m4 0h1m1 0h1m1 0h5m5 0h1m3 0h2m1 0h2m4 0h1m1 0h4m1 0h2m1 0h2m3 0h4m1 0h2m1 0h1m1 0h1m1 0h4m1 0h1m1 0h2m3 0h2m1 0h1m2 0h1m7 0h4m1 0h2m3 0h1m2 0h1m1 0h1m2 0h1m2 0h1m1 0h1m1 0h2m1 0h1m1 0h1m3 0h1m1 0h2M1 55.5h2m1 0h2m1 0h1m1 0h1m5 0h1m1 0h1m1 0h1m1 0h3m3 0h1m1 0h1m1 0h1m1 0h1m1 0h3m2 0h3m5 0h1m3 0h2m1 0h1m1 0h3m1 0h1m2 0h1m4 0h3m1 0h1m3 0h1m1 0h1m1 0h2m1 0h1m2 0h1m1 0h1m1 0h6m1 0h2m1 0h1m1 0h1m1 0h2m2 0h1m2 0h2m1 0h1m2 0h1m3 0h1m2 0h1m1 0h1m1 0h1m2 0h1M2 56.5h1m1 0h2m3 0h3m2 0h3m1 0h1m1 0h2m1 0h2m1 0h1m1 0h2m3 0h1m8 0h1m3 0h1m1 0h3m2 0h1m3 0h1m1 0h1m2 0h2m3 0h1m1 0h2m1 0h1m1 0h1m1 0h2m3 0h2m1 0h2m5 0h1m1 0h4m1 0h2m1 0h1m3 0h3m1 0h1m1 0h1m2 0h1m2 0h2m2 0h2m1 0h2m3 0h3m1 0h1M5 57.5h7m1 0h1m1 0h1m1 0h2m2 0h1m2 0h1m1 0h2m1 0h6m1 0h2m1 0h2m1 0h1m1 0h5m1 0h1m2 0h8m5 0h1m1 0h1m4 0h2m2 0h6m1 0h1m1 0h2m2 0h2m1 0h2m3 0h8m4 0h4m3 0h1m7 0h6m2 0h1M2 58.5h2m1 0h1m5 0h4m2 0h2m1 0h1m1 0h4m5 0h1m2 0h2m1 0h9m1 0h1m3 0h2m1 0h2m1 0h1m2 0h1m5 0h2m1 0h1m1 0h1m1 0h1m2 0h3m1 0h1m1 0h5m1 0h1m5 0h1m2 0h1m3 0h3m2 0h1m1 0h1m2 0h1m3 0h1m1 0h3m1 0h1m2 0h4m1 0h2m1 0h2M3 59.5h1m1 0h3m1 0h1m13 0h1m1 0h2m2 0h1m2 0h1m3 0h2m3 0h1m3 0h2m1 0h2m1 0h1m4 0h1m2 0h2m1 0h1m1 0h2m4 0h3m2 0h1m1 0h2m1 0h1m2 0h3m1 0h1m1 0h1m1 0h7m2 0h1m3 0h1m5 0h1m1 0h4m2 0h1m6 0h1m1 0h2m1 0h1M1 60.5h1m1 0h4m3 0h1m9 0h5m2 0h1m2 0h1m3 0h3m1 0h2m2 0h1m2 0h3m1 0h2m1 0h2m2 0h2m2 0h5m1 0h2m1 0h1m1 0h1m2 0h1m1 0h1m1 0h2m2 0h2m3 0h4m2 0h1m1 0h3m8 0h5m2 0h9m2 0h1m2 0h1m1 0h1m3 0h1M1 61.5h2m1 0h1m2 0h1m1 0h1m1 0h1m3 0h9m3 0h1m1 0h3m3 0h3m2 0h1m1 0h1m3 0h3m2 0h1m1 0h1m1 0h3m2 0h1m4 0h1m1 0h2m2 0h1m1 0h1m2 0h2m3 0h1m4 0h1m2 0h3m1 0h2m2 0h3m2 0h2m3 0h2m2 0h2m1 0h3m2 0h2m1 0h1m2 0h9M3 62.5h2m1 0h1m1 0h3m1 0h3m3 0h1m1 0h1m1 0h1m1 0h3m5 0h1m1 0h1m2 0h3m4 0h1m1 0h1m3 0h1m2 0h1m1 0h1m3 0h1m1 0h3m1 0h1m2 0h1m2 0h2m2 0h1m1 0h2m1 0h6m1 0h4m1 0h3m1 0h2m1 0h2m1 0h1m3 0h1m1 0h1m1 0h1m1 0h2m3 0h2m4 0h1m1 0h1m1 0h1m1 0h2m2 0h1M2 63.5h2m1 0h5m1 0h1m1 0h2m1 0h1m2 0h9m1 0h4m1 0h4m1 0h1m1 0h5m2 0h1m3 0h1m1 0h2m2 0h2m2 0h1m1 0h1m1 0h1m1 0h1m3 0h2m4 0h3m1 0h2m1 0h1m1 0h6m1 0h4m2 0h2m1 0h1m6 0h2m3 0h1m2 0h1m3 0h2m2 0h3m1 0h3M1 64.5h1m4 0h1m2 0h2m2 0h8m2 0h1m5 0h2m4 0h1m2 0h1m3 0h1m2 0h5m2 0h2m3 0h1m3 0h3m1 0h1m1 0h2m2 0h4m2 0h3m1 0h5m1 0h2m1 0h2m2 0h3m1 0h5m2 0h1m3 0h3m2 0h1m1 0h2m2 0h2m1 0h3m1 0h1m1 0h2m2 0h1M4 65.5h1m2 0h2m1 0h6m1 0h2m1 0h4m1 0h1m1 0h5m1 0h2m2 0h1m2 0h3m1 0h8m4 0h2m1 0h1m1 0h3m3 0h1m2 0h2m1 0h5m5 0h1m1 0h2m1 0h1m3 0h4m2 0h1m3 0h1m1 0h1m3 0h1m1 0h1m3 0h1m1 0h1m4 0h1m3 0h2m3 0h1m1 0h1M1 66.5h1m3 0h2m5 0h3m1 0h1m1 0h1m5 0h3m1 0h2m2 0h1m1 0h3m2 0h2m1 0h1m2 0h1m2 0h1m4 0h3m3 0h1m1 0h1m2 0h1m1 0h1m2 0h1m1 0h1m2 0h1m1 0h5m1 0h1m1 0h1m6 0h1m2 0h4m1 0h3m1 0h6m2 0h3m1 0h3m1 0h1m2 0h1m1 0h2m1 0h4m1 0h1M1 67.5h1m2 0h2m1 0h1m2 0h1m2 0h1m1 0h1m4 0h1m1 0h3m1 0h1m3 0h2m5 0h1m1 0h3m3 0h1m3 0h2m1 0h1m1 0h1m1 0h2m1 0h3m4 0h3m1 0h3m3 0h1m1 0h1m1 0h2m1 0h2m1 0h2m1 0h2m3 0h3m2 0h1m1 0h1m2 0h3m2 0h1m2 0h1m2 0h1m2 0h1m3 0h1m1 0h1m1 0h3m1 0h1m1 0h1M1 68.5h1m3 0h1m2 0h1m1 0h3m1 0h3m1 0h1m1 0h2m3 0h3m3 0h1m3 0h1m4 0h2m3 0h2m1 0h1m1 0h4m1 0h1m1 0h6m1 0h2m4 0h1m1 0h1m2 0h5m1 0h1m2 0h2m2 0h2m1 0h1m4 0h1m1 0h1m1 0h3m1 0h1m1 0h2m1 0h1m1 0h1m2 0h1m4 0h3m1 0h4m2 0h1m3 0h1M4 69.5h2m1 0h1m2 0h1m2 0h2m2 0h1m1 0h2m4 0h1m1 0h1m1 0h2m2 0h1m3 0h1m1 0h1m4 0h1m3 0h1m5 0h2m4 0h1m2 0h1m2 0h1m4 0h5m1 0h2m2 0h2m2 0h1m2 0h1m1 0h1m2 0h2m5 0h1m1 0h1m3 0h1m4 0h4m1 0h1m1 0h1m1 0h1m1 0h1m1 0h1m3 0h2M2 70.5h2m14 0h1m1 0h2m2 0h3m5 0h4m1 0h3m1 0h6m4 0h1m3 0h1m1 0h2m1 0h3m1 0h1m2 0h2m1 0h3m2 0h1m1 0h2m1 0h3m3 0h4m1 0h1m1 0h1m2 0h3m3 0h2m2 0h3m2 0h3m2 0h4m1 0h1m2 0h1m5 0h4M4 71.5h2m1 0h1m2 0h1m3 0h2m4 0h2m1 0h1m1 0h4m1 0h4m3 0h1m2 0h3m3 0h6m2 0h3m3 0h1m2 0h3m1 0h2m5 0h1m2 0h3m2 0h2m1 0h2m1 0h1m5 0h1m1 0h2m2 0h1m8 0h1m2 0h1m1 0h2m1 0h1m1 0h1m1 0h2m1 0h5m3 0h1M2 72.5h1m2 0h1m3 0h1m4 0h2m1 0h2m1 0h1m2 0h1m2 0h3m2 0h2m2 0h1m1 0h1m1 0h1m2 0h3m1 0h1m1 0h1m1 0h1m1 0h2m1 0h1m1 0h2m1 0h2m3 0h1m2 0h1m1 0h4m1 0h2m1 0h2m1 0h1m4 0h1m3 0h1m2 0h1m7 0h2m2 0h5m7 0h2m1 0h1m2 0h1m1 0h2m2 0h1m3 0h1M1 73.5h3m1 0h1m1 0h1m1 0h2m2 0h1m1 0h1m3 0h1m2 0h3m2 0h2m1 0h2m1 0h4m1 0h2m2 0h2m3 0h2m1 0h1m1 0h1m5 0h1m1 0h1m1 0h4m2 0h2m4 0h2m1 0h1m2 0h1m2 0h2m2 0h1m1 0h1m5 0h3m4 0h1m2 0h3m2 0h1m2 0h1m3 0h2m1 0h1m1 0h4m1 0h4m2 0h1M1 74.5h2m2 0h2m2 0h3m1 0h2m5 0h1m2 0h1m1 0h4m4 0h3m2 0h1m1 0h1m2 0h1m1 0h1m3 0h4m1 0h3m2 0h2m1 0h2m4 0h2m3 0h1m1 0h1m1 0h3m4 0h2m2 0h2m1 0h2m3 0h2m1 0h1m1 0h3m2 0h1m5 0h1m1 0h2m1 0h5m1 0h1m5 0h1m2 0h1M2 75.5h2m1 0h3m1 0h1m1 0h2m5 0h3m3 0h1m1 0h3m1 0h1m1 0h1m1 0h2m2 0h1m1 0h2m3 0h5m3 0h2m2 0h1m1 0h1m3 0h1m1 0h4m1 0h1m5 0h1m1 0h2m4 0h3m1 0h2m4 0h1m1 0h2m2 0h1m2 0h1m2 0h1m3 0h1m1 0h2m4 0h1m3 0h1m1 0h3m1 0h1m2 0h3M2 76.5h5m2 0h1m5 0h4m1 0h4m2 0h4m2 0h1m1 0h1m1 0h2m1 0h2m3 0h4m8 0h3m2 0h1m1 0h1m11 0h1m4 0h1m1 0h3m2 0h4m1 0h1m2 0h3m1 0h1m1 0h5m1 0h5m4 0h2m3 0h1m3 0h1m1 0h3m1 0h1M1 77.5h2m1 0h7m2 0h2m1 0h2m5 0h2m1 0h2m1 0h6m1 0h2m1 0h2m3 0h1m1 0h3m3 0h7m3 0h1m1 0h10m1 0h1m1 0h6m1 0h1m1 0h2m1 0h2m2 0h2m4 0h1m1 0h10m5 0h1m2 0h1m1 0h1m2 0h6m1 0h1M3 78.5h1m1 0h1m3 0h5m1 0h1m1 0h1m2 0h3m1 0h1m1 0h2m1 0h1m3 0h3m3 0h1m3 0h2m5 0h1m1 0h2m3 0h3m4 0h1m1 0h1m2 0h1m5 0h3m3 0h1m2 0h8m3 0h1m1 0h5m3 0h1m2 0h1m4 0h5m1 0h4m1 0h2m3 0h3M2 79.5h1m2 0h1m1 0h1m1 0h2m2 0h5m1 0h1m1 0h3m1 0h1m1 0h1m1 0h1m1 0h1m1 0h2m3 0h1m1 0h3m4 0h1m1 0h1m3 0h1m1 0h1m1 0h2m2 0h4m1 0h9m2 0h1m1 0h1m1 0h1m3 0h1m1 0h2m2 0h5m1 0h1m1 0h1m1 0h1m1 0h1m1 0h1m6 0h1m1 0h1m6 0h2m2 0h1m1 0h1m1 0h4M2 80.5h4m3 0h1m1 0h3m2 0h2m1 0h1m1 0h3m1 0h1m2 0h2m3 0h1m1 0h2m1 0h5m2 0h1m1 0h1m3 0h3m3 0h1m3 0h1m3 0h1m1 0h2m2 0h1m4 0h2m3 0h1m1 0h1m1 0h5m1 0h1m1 0h6m2 0h1m3 0h1m4 0h1m1 0h2m1 0h1m4 0h2m1 0h3m3 0h1m1 0h1m1 0h1M1 81.5h1m3 0h5m1 0h3m1 0h2m1 0h1m2 0h1m1 0h1m1 0h2m1 0h9m1 0h3m4 0h1m3 0h1m3 0h5m1 0h2m4 0h1m1 0h2m3 0h3m2 0h5m2 0h1m1 0h1m4 0h3m2 0h2m1 0h8m2 0h2m1 0h3m1 0h1m1 0h2m2 0h1m1 0h6m3 0h1M1 82.5h1m1 0h2m1 0h1m1 0h1m2 0h1m1 0h1m4 0h1m3 0h1m1 0h1m4 0h1m2 0h1m1 0h1m1 0h3m1 0h2m2 0h1m1 0h1m2 0h1m2 0h1m1 0h2m1 0h1m1 0h2m1 0h2m4 0h2m1 0h1m4 0h2m1 0h3m2 0h1m1 0h1m1 0h1m1 0h2m2 0h4m2 0h2m1 0h1m2 0h1m4 0h6m1 0h1m2 0h1m1 0h1m1 0h2m1 0h2m3 0h1M1 83.5h3m1 0h4m1 0h1m4 0h1m4 0h2m3 0h5m2 0h1m1 0h1m2 0h1m3 0h1m1 0h1m1 0h1m2 0h3m1 0h3m1 0h1m3 0h2m1 0h1m1 0h2m2 0h1m6 0h1m4 0h1m3 0h1m1 0h4m4 0h4m6 0h2m7 0h2m5 0h1m1 0h1m1 0h1m3 0h3M1 84.5h1m4 0h1m1 0h1m3 0h3m1 0h3m3 0h1m4 0h2m1 0h2m1 0h1m2 0h1m5 0h4m1 0h1m1 0h1m1 0h2m1 0h1m1 0h2m4 0h1m1 0h1m1 0h2m3 0h1m6 0h2m3 0h2m6 0h1m7 0h1m4 0h1m4 0h2m5 0h1m1 0h4m2 0h1m1 0h1m1 0h1m1 0h2M1 85.5h3m1 0h3m1 0h1m3 0h2m3 0h1m1 0h6m2 0h1m2 0h2m1 0h1m1 0h2m2 0h1m5 0h3m4 0h1m2 0h5m1 0h1m1 0h3m2 0h3m2 0h1m2 0h2m2 0h1m1 0h1m1 0h1m2 0h2m4 0h4m7 0h2m1 0h2m2 0h2m3 0h1m1 0h1m2 0h3m2 0h4m2 0h1M1 86.5h1m2 0h1m3 0h4m1 0h1m5 0h3m3 0h2m1 0h1m2 0h2m1 0h2m3 0h1m1 0h1m3 0h2m2 0h3m4 0h1m2 0h1m4 0h4m2 0h1m1 0h2m1 0h1m3 0h1m1 0h1m2 0h1m1 0h2m1 0h1m3 0h1m2 0h2m2 0h3m10 0h6m3 0h1m1 0h2m1 0h3m3 0h1M3 87.5h1m1 0h4m1 0h1m1 0h1m1 0h1m1 0h1m2 0h1m3 0h4m1 0h3m1 0h6m2 0h1m2 0h1m3 0h1m1 0h2m5 0h1m1 0h1m1 0h7m1 0h3m1 0h1m1 0h1m1 0h1m2 0h1m2 0h2m2 0h4m1 0h2m1 0h1m1 0h2m3 0h1m1 0h2m1 0h2m4 0h1m4 0h1m4 0h2m3 0h1m2 0h4M1 88.5h2m3 0h1m4 0h1m1 0h1m3 0h3m2 0h2m1 0h1m1 0h2m2 0h1m1 0h2m1 0h1m4 0h1m2 0h3m2 0h4m3 0h1m2 0h1m2 0h2m1 0h1m1 0h1m1 0h2m3 0h1m1 0h1m2 0h1m4 0h1m5 0h5m1 0h1m4 0h1m2 0h1m1 0h1m2 0h1m1 0h1m1 0h1m2 0h2m1 0h3m2 0h3m1 0h1M1 89.5h1m3 0h4m1 0h1m1 0h4m1 0h1m1 0h1m3 0h2m1 0h3m3 0h2m2 0h1m1 0h1m2 0h2m1 0h1m2 0h1m1 0h6m1 0h1m1 0h1m2 0h1m2 0h2m1 0h1m3 0h1m3 0h1m1 0h1m2 0h8m3 0h1m1 0h1m5 0h4m3 0h1m1 0h1m1 0h2m1 0h1m2 0h1m1 0h1m4 0h1m3 0h3m1 0h1m1 0h1M2 90.5h5m1 0h1m3 0h1m4 0h1m1 0h1m4 0h3m3 0h1m2 0h1m2 0h3m1 0h1m2 0h2m1 0h1m1 0h1m2 0h1m1 0h2m2 0h1m1 0h1m2 0h2m1 0h2m2 0h1m3 0h1m1 0h1m1 0h1m5 0h1m4 0h1m1 0h1m2 0h1m1 0h1m1 0h6m3 0h3m1 0h2m2 0h4m1 0h4m1 0h2m1 0h4m2 0h1M1 91.5h1m3 0h1m1 0h2m4 0h4m1 0h1m2 0h2m1 0h3m1 0h4m1 0h1m1 0h1m2 0h1m1 0h1m1 0h4m1 0h2m6 0h1m1 0h1m1 0h1m1 0h1m5 0h1m3 0h3m1 0h1m1 0h1m4 0h1m2 0h1m5 0h1m2 0h2m1 0h1m1 0h6m5 0h1m2 0h2m2 0h3m2 0h1m6 0h1m2 0h2M1 92.5h2m1 0h1m1 0h1m3 0h2m1 0h2m2 0h1m2 0h1m2 0h1m1 0h6m2 0h4m4 0h2m2 0h2m1 0h1m1 0h1m1 0h2m1 0h1m1 0h4m1 0h1m2 0h5m1 0h2m1 0h2m3 0h2m1 0h1m1 0h2m1 0h6m1 0h6m3 0h2m1 0h1m8 0h1m3 0h2m2 0h4m1 0h1m2 0h1m1 0h1M1 93.5h1m1 0h5m1 0h3m2 0h1m2 0h1m1 0h3m1 0h3m1 0h1m1 0h1m2 0h2m1 0h1m1 0h2m3 0h4m1 0h5m1 0h7m3 0h1m1 0h2m2 0h2m2 0h4m2 0h1m2 0h1m1 0h1m2 0h3m1 0h3m2 0h2m2 0h1m1 0h2m3 0h1m1 0h6m1 0h1m4 0h2m2 0h1m2 0h1m1 0h1M3 94.5h1m1 0h1m2 0h3m3 0h1m2 0h4m1 0h1m1 0h3m1 0h1m2 0h1m1 0h1m1 0h2m4 0h2m5 0h1m3 0h1m1 0h1m1 0h5m1 0h1m1 0h3m1 0h1m2 0h1m1 0h2m2 0h2m2 0h4m1 0h2m1 0h3m2 0h5m1 0h1m2 0h2m2 0h1m3 0h1m1 0h3m1 0h1m1 0h2m1 0h1m1 0h3m1 0h1m1 0h4M1 95.5h1m1 0h1m1 0h1m1 0h1m1 0h1m1 0h1m1 0h1m7 0h2m2 0h2m1 0h2m1 0h1m1 0h2m2 0h1m3 0h3m3 0h1m3 0h1m1 0h1m3 0h4m2 0h1m3 0h2m2 0h1m2 0h3m1 0h2m1 0h1m2 0h1m1 0h5m1 0h1m2 0h3m2 0h2m2 0h1m5 0h3m1 0h1m2 0h1m2 0h2m1 0h1m5 0h3M3 96.5h1m2 0h1m1 0h1m5 0h1m4 0h2m1 0h1m1 0h3m4 0h1m3 0h1m1 0h1m3 0h2m1 0h2m2 0h1m2 0h6m1 0h1m1 0h2m1 0h1m1 0h3m3 0h2m1 0h1m5 0h2m4 0h1m1 0h3m1 0h3m10 0h2m2 0h1m1 0h1m1 0h1m1 0h1m1 0h1m1 0h1m3 0h1m1 0h1m2 0h1m1 0h1m2 0h1M1 97.5h1m3 0h3m3 0h1m1 0h2m1 0h3m1 0h2m1 0h3m4 0h1m1 0h2m2 0h1m1 0h3m1 0h6m3 0h1m1 0h3m1 0h1m2 0h2m7 0h1m6 0h1m3 0h1m3 0h3m1 0h1m2 0h2m3 0h2m1 0h2m3 0h9m9 0h3m1 0h4M4 98.5h2m2 0h1m2 0h1m4 0h1m3 0h1m6 0h3m1 0h1m1 0h1m5 0h1m3 0h6m1 0h1m1 0h5m5 0h1m1 0h6m1 0h1m1 0h2m1 0h8m2 0h1m4 0h1m1 0h1m2 0h2m2 0h1m1 0h3m7 0h1m1 0h2m1 0h1m2 0h1m2 0h2m3 0h3m2 0h1M5 99.5h1m1 0h1m2 0h3m5 0h2m2 0h3m1 0h3m7 0h1m2 0h2m1 0h6m1 0h2m3 0h2m1 0h1m1 0h1m3 0h2m1 0h1m2 0h1m1 0h2m2 0h1m4 0h3m2 0h4m2 0h4m1 0h1m1 0h1m1 0h5m1 0h2m2 0h1m3 0h2m6 0h1m10 0h1M3 100.5h1m1 0h2m4 0h3m1 0h1m1 0h1m1 0h1m5 0h1m1 0h5m9 0h1m4 0h2m2 0h1m2 0h1m2 0h1m2 0h1m1 0h2m3 0h1m9 0h1m1 0h4m3 0h1m5 0h1m1 0h2m1 0h2m2 0h1m3 0h3m4 0h2m2 0h1m2 0h1m2 0h1m2 0h3m1 0h1m1 0h1m2 0h1M1 101.5h3m1 0h6m2 0h2m3 0h2m1 0h1m1 0h1m2 0h1m1 0h6m3 0h1m3 0h3m1 0h4m1 0h1m2 0h8m2 0h3m7 0h1m3 0h7m1 0h3m1 0h4m6 0h8m2 0h2m1 0h3m4 0h1m5 0h7M1 102.5h1m1 0h3m3 0h1m3 0h1m2 0h1m2 0h4m2 0h5m3 0h1m2 0h5m3 0h4m1 0h1m1 0h3m3 0h1m2 0h1m1 0h2m3 0h1m1 0h2m2 0h1m2 0h2m3 0h3m1 0h1m1 0h1m3 0h1m1 0h1m1 0h1m5 0h1m3 0h3m2 0h1m6 0h9m3 0h3M5 103.5h1m1 0h1m1 0h3m1 0h1m1 0h1m1 0h2m4 0h1m1 0h5m1 0h1m1 0h1m2 0h2m1 0h2m2 0h5m1 0h1m2 0h2m1 0h1m1 0h1m3 0h5m2 0h1m6 0h3m1 0h1m1 0h3m1 0h1m1 0h1m1 0h4m1 0h2m2 0h1m1 0h2m1 0h1m1 0h1m2 0h5m4 0h1m6 0h2m1 0h1m1 0h2M1 104.5h1m3 0h1m3 0h2m1 0h1m1 0h2m2 0h1m1 0h2m2 0h2m2 0h2m3 0h2m1 0h1m3 0h3m2 0h2m1 0h4m1 0h1m3 0h1m1 0h3m1 0h1m2 0h2m1 0h2m2 0h1m1 0h3m3 0h1m1 0h1m1 0h2m1 0h1m2 0h1m1 0h3m2 0h4m3 0h2m1 0h2m3 0h1m1 0h1m2 0h1m4 0h1m1 0h1m3 0h3M2 105.5h2m1 0h5m1 0h2m1 0h1m2 0h1m1 0h1m4 0h3m1 0h18m5 0h7m1 0h1m2 0h3m4 0h5m2 0h6m2 0h3m1 0h4m1 0h1m4 0h8m1 0h1m1 0h6m1 0h1m1 0h2m2 0h1m2 0h6m1 0h2M2 106.5h1m9 0h1m3 0h2m3 0h1m1 0h1m1 0h2m2 0h1m6 0h5m2 0h2m1 0h1m1 0h1m2 0h4m1 0h4m2 0h1m6 0h3m2 0h2m1 0h1m1 0h6m1 0h1m3 0h1m3 0h2m2 0h1m1 0h3m1 0h1m1 0h1m1 0h3m1 0h1m1 0h2m1 0h2m1 0h1m3 0h1m4 0h1m1 0h1m1 0h1M1 107.5h1m2 0h1m1 0h2m1 0h1m1 0h1m2 0h1m3 0h1m1 0h3m2 0h8m2 0h4m2 0h1m1 0h1m2 0h5m4 0h2m1 0h3m1 0h1m1 0h1m1 0h7m1 0h3m1 0h2m4 0h1m1 0h2m1 0h2m4 0h2m4 0h6m1 0h1m5 0h2m1 0h1m2 0h1m2 0h1m2 0h1m1 0h6M1 108.5h1m2 0h1m3 0h1m1 0h1m1 0h1m1 0h1m2 0h1m3 0h2m2 0h1m1 0h1m1 0h2m1 0h2m1 0h3m1 0h2m2 0h3m2 0h1m1 0h1m5 0h2m2 0h1m1 0h1m2 0h1m2 0h2m1 0h1m1 0h3m2 0h1m1 0h1m1 0h1m5 0h1m1 0h2m2 0h2m1 0h1m5 0h5m1 0h1m1 0h1m5 0h2m4 0h3m3 0h1m1 0h1M1 109.5h1m5 0h1m1 0h2m2 0h1m1 0h2m3 0h2m2 0h3m2 0h1m2 0h1m1 0h2m1 0h1m1 0h2m1 0h12m2 0h1m1 0h1m3 0h1m2 0h1m4 0h1m1 0h2m2 0h1m3 0h1m1 0h1m1 0h2m2 0h4m2 0h1m1 0h1m1 0h1m2 0h1m3 0h3m1 0h1m1 0h2m6 0h5m1 0h2m1 0h1m1 0h1M1 110.5h2m1 0h2m2 0h1m1 0h1m1 0h1m1 0h1m2 0h1m1 0h1m1 0h1m3 0h1m1 0h5m3 0h2m2 0h3m1 0h1m1 0h1m1 0h1m2 0h3m2 0h3m1 0h1m1 0h3m2 0h3m1 0h1m3 0h3m7 0h1m8 0h1m4 0h3m1 0h1m1 0h1m4 0h3m9 0h1m1 0h2m1 0h2m2 0h1m1 0h1M1 111.5h4m2 0h3m1 0h1m1 0h1m1 0h1m3 0h3m1 0h1m1 0h6m1 0h1m1 0h2m4 0h1m1 0h2m2 0h2m1 0h1m1 0h1m3 0h2m1 0h5m2 0h2m2 0h4m1 0h1m4 0h1m1 0h4m1 0h5m1 0h3m1 0h1m2 0h2m2 0h6m1 0h1m1 0h1m1 0h5m1 0h3m5 0h1m1 0h1m1 0h2M1 112.5h1m2 0h1m3 0h2m1 0h2m1 0h2m2 0h2m4 0h1m1 0h1m3 0h4m1 0h3m2 0h1m1 0h2m1 0h1m5 0h2m1 0h1m1 0h3m2 0h1m1 0h1m3 0h1m2 0h2m7 0h1m2 0h3m1 0h3m1 0h1m2 0h2m3 0h3m2 0h2m1 0h1m1 0h2m1 0h1m3 0h1m1 0h1m1 0h1m4 0h2m2 0h2m1 0h1M2 113.5h2m2 0h5m1 0h1m2 0h1m1 0h1m1 0h2m4 0h2m3 0h1m1 0h6m1 0h1m1 0h3m1 0h3m2 0h1m3 0h1m2 0h1m1 0h1m2 0h1m1 0h1m1 0h1m1 0h1m2 0h1m2 0h5m1 0h1m2 0h1m1 0h3m1 0h3m1 0h1m5 0h1m3 0h2m3 0h2m1 0h1m2 0h1m5 0h1m1 0h1m1 0h1m2 0h2m1 0h2M1 114.5h1m2 0h1m3 0h2m3 0h2m2 0h2m5 0h1m6 0h4m2 0h1m1 0h3m1 0h2m1 0h1m1 0h1m4 0h2m6 0h1m1 0h3m2 0h2m3 0h4m5 0h1m2 0h1m1 0h1m4 0h4m1 0h6m1 0h10m3 0h1m1 0h3m2 0h1m1 0h4m1 0h3M4 115.5h1m1 0h5m4 0h1m1 0h1m5 0h3m2 0h1m5 0h1m3 0h3m1 0h1m4 0h1m2 0h2m1 0h1m3 0h1m4 0h1m2 0h2m1 0h1m1 0h2m6 0h1m1 0h1m1 0h3m1 0h1m2 0h2m1 0h1m1 0h3m2 0h6m3 0h1m1 0h1m1 0h1m7 0h3m2 0h1m2 0h4M1 116.5h1m1 0h1m4 0h1m2 0h1m2 0h2m6 0h2m5 0h2m3 0h1m2 0h1m1 0h9m1 0h2m3 0h2m1 0h1m4 0h3m1 0h2m2 0h2m2 0h4m1 0h3m1 0h1m1 0h1m3 0h2m4 0h1m2 0h3m2 0h1m2 0h2m1 0h1m1 0h2m2 0h2m1 0h5m4 0h1m5 0h1M1 117.5h2m2 0h3m1 0h2m1 0h3m2 0h2m2 0h2m1 0h1m2 0h1m2 0h1m10 0h1m2 0h2m1 0h1m1 0h3m1 0h1m1 0h1m1 0h1m1 0h1m1 0h1m1 0h1m1 0h2m2 0h1m1 0h2m4 0h4m1 0h1m5 0h5m6 0h1m1 0h1m6 0h1m2 0h4m1 0h1m2 0h1m2 0h1m2 0h3m2 0h1m1 0h2M1 118.5h1m2 0h1m3 0h1m1 0h3m2 0h1m2 0h1m1 0h1m1 0h2m5 0h1m2 0h4m2 0h1m1 0h1m1 0h1m3 0h8m1 0h1m3 0h3m1 0h1m5 0h5m4 0h2m3 0h1m1 0h1m4 0h1m1 0h5m3 0h2m1 0h1m1 0h1m1 0h1m1 0h2m1 0h1m1 0h3m1 0h1m1 0h2m2 0h2m1 0h1m2 0h1m1 0h1M1 119.5h2m1 0h2m1 0h2m1 0h1m1 0h2m2 0h1m3 0h2m3 0h4m1 0h2m3 0h2m4 0h4m1 0h5m1 0h1m1 0h4m1 0h3m2 0h1m1 0h4m3 0h1m1 0h1m1 0h5m1 0h3m2 0h1m1 0h1m2 0h1m1 0h1m4 0h1m1 0h3m4 0h2m1 0h1m1 0h4m2 0h1m2 0h1m3 0h2m1 0h1m1 0h2M3 120.5h2m4 0h2m1 0h2m6 0h3m1 0h1m1 0h1m1 0h2m2 0h1m2 0h4m1 0h2m5 0h1m2 0h3m1 0h1m2 0h3m1 0h1m4 0h1m3 0h5m1 0h2m3 0h1m1 0h2m1 0h1m3 0h3m1 0h1m2 0h1m1 0h1m3 0h1m1 0h2m1 0h3m1 0h1m5 0h2m1 0h1m1 0h2m2 0h2m2 0h1m1 0h1M1 121.5h1m2 0h2m1 0h1m4 0h1m1 0h2m1 0h1m1 0h2m1 0h3m1 0h3m1 0h1m1 0h2m1 0h2m2 0h1m1 0h1m1 0h1m4 0h2m1 0h3m4 0h1m2 0h1m1 0h1m1 0h1m4 0h2m2 0h5m1 0h1m2 0h2m2 0h1m1 0h3m1 0h1m5 0h4m1 0h6m1 0h2m3 0h2m3 0h3m1 0h1m1 0h2m1 0h1m2 0h1M1 122.5h1m7 0h1m1 0h1m4 0h1m9 0h1m1 0h1m1 0h1m2 0h1m1 0h1m2 0h1m1 0h2m2 0h1m4 0h1m2 0h1m1 0h5m1 0h2m5 0h3m2 0h2m1 0h3m2 0h1m4 0h1m6 0h1m2 0h7m1 0h1m2 0h2m1 0h7m4 0h1m1 0h1m1 0h1m1 0h1m1 0h1m1 0h3M1 123.5h2m1 0h5m3 0h1m1 0h1m2 0h3m1 0h2m1 0h1m1 0h4m3 0h2m1 0h4m2 0h1m4 0h2m1 0h3m1 0h2m1 0h1m2 0h4m1 0h1m2 0h3m1 0h2m4 0h3m4 0h1m3 0h1m2 0h1m2 0h3m2 0h4m1 0h4m2 0h4m2 0h1m3 0h1m4 0h2m1 0h3m1 0h1M1 124.5h2m3 0h1m1 0h1m1 0h1m2 0h3m4 0h1m3 0h1m1 0h1m3 0h2m1 0h3m5 0h2m2 0h1m1 0h1m2 0h1m4 0h2m5 0h2m1 0h1m1 0h3m1 0h1m2 0h1m1 0h2m5 0h1m1 0h1m1 0h1m2 0h2m4 0h1m3 0h1m1 0h2m2 0h1m1 0h4m7 0h1m1 0h1m1 0h3m1 0h2m1 0h3M1 125.5h3m1 0h1m1 0h3m1 0h1m2 0h1m1 0h2m1 0h1m1 0h1m1 0h2m4 0h5m1 0h1m4 0h4m6 0h1m2 0h12m1 0h2m2 0h2m1 0h2m2 0h5m2 0h1m1 0h1m1 0h1m1 0h2m1 0h1m2 0h2m2 0h6m1 0h4m1 0h1m1 0h1m1 0h1m1 0h1m4 0h9M9 126.5h10m1 0h1m1 0h2m1 0h1m3 0h1m3 0h1m2 0h6m1 0h1m2 0h3m4 0h1m3 0h1m3 0h1m1 0h3m1 0h1m2 0h1m3 0h4m3 0h1m5 0h1m6 0h2m2 0h1m2 0h1m3 0h3m1 0h3m1 0h1m1 0h4m2 0h1m1 0h1m1 0h1m3 0h2m2 0h1M1 127.5h7m2 0h5m3 0h1m5 0h3m1 0h2m1 0h1m1 0h2m1 0h1m4 0h2m2 0h4m1 0h4m1 0h1m1 0h4m1 0h2m2 0h2m1 0h1m1 0h1m2 0h4m1 0h1m1 0h1m3 0h3m1 0h2m2 0h3m4 0h2m1 0h1m1 0h1m3 0h2m4 0h3m3 0h1m2 0h2m1 0h1m1 0h5M1 128.5h1m5 0h1m2 0h2m1 0h1m1 0h3m1 0h1m3 0h1m3 0h1m1 0h1m3 0h1m1 0h4m1 0h5m1 0h1m3 0h4m3 0h2m9 0h2m1 0h4m1 0h2m3 0h1m4 0h1m2 0h1m1 0h2m4 0h1m1 0h3m3 0h8m2 0h1m4 0h6m3 0h1m1 0h3M1 129.5h1m1 0h3m1 0h1m1 0h2m2 0h1m1 0h2m2 0h2m1 0h1m3 0h2m1 0h5m1 0h1m1 0h1m3 0h2m1 0h3m3 0h1m1 0h6m2 0h3m1 0h6m1 0h1m3 0h17m1 0h1m3 0h1m1 0h7m2 0h3m1 0h3m1 0h2m4 0h2m1 0h6m1 0h2M1 130.5h1m1 0h3m1 0h1m1 0h1m5 0h1m1 0h1m1 0h1m1 0h1m2 0h1m3 0h1m1 0h1m1 0h3m1 0h1m2 0h3m4 0h3m1 0h2m3 0h1m1 0h1m1 0h3m1 0h2m2 0h3m3 0h2m9 0h2m1 0h1m2 0h1m1 0h1m1 0h2m3 0h2m3 0h2m1 0h1m1 0h2m2 0h3m2 0h1m1 0h2m8 0h1m2 0h1M1 131.5h1m1 0h3m1 0h1m1 0h1m1 0h5m1 0h2m3 0h1m3 0h1m1 0h1m1 0h1m3 0h4m2 0h4m2 0h2m4 0h4m1 0h2m1 0h1m6 0h1m2 0h2m3 0h3m1 0h1m1 0h1m3 0h1m2 0h3m2 0h1m1 0h2m2 0h5m6 0h1m1 0h1m2 0h1m5 0h11m1 0h1M1 132.5h1m5 0h1m3 0h2m2 0h1m3 0h1m1 0h1m1 0h3m1 0h2m1 0h1m1 0h1m1 0h1m1 0h1m1 0h2m1 0h2m1 0h3m4 0h2m1 0h2m3 0h2m1 0h1m2 0h5m2 0h1m2 0h2m2 0h2m8 0h4m1 0h1m3 0h7m1 0h1m1 0h2m1 0h3m2 0h1m1 0h4m1 0h1m5 0h1m1 0h1M1 133.5h7m2 0h6m3 0h4m2 0h2m1 0h3m8 0h2m1 0h2m1 0h2m3 0h1m3 0h1m3 0h1m1 0h4m1 0h3m1 0h2m1 0h3m1 0h1m2 0h2m1 0h1m2 0h2m1 0h4m1 0h1m3 0h1m2 0h1m1 0h1m1 0h2m1 0h3m4 0h1m1 0h1m1 0h4m5 0h2m4 0h1"/></svg>
