<svg xmlns="http://www.w3.org/2000/svg" viewBox="0 0 64 64" role="img" aria-label="Konforme">
  <title>Konforme</title>
  <defs>
    <linearGradient id="bg" x1="0" y1="0" x2="64" y2="64" gradientUnits="userSpaceOnUse">
      <stop offset="0" stop-color="#1d4ed8"/>
      <stop offset="1" stop-color="#0891b2"/>
    </linearGradient>
  </defs>
  <!-- Pastille de marque : le symbole reste lisible sur fond clair comme sombre -->
  <rect width="64" height="64" rx="14" fill="url(#bg)"/>
  <path d="M45.6 12.4A23 23 0 1 1 32 9" fill="none" stroke="#ffffff" stroke-opacity=".55" stroke-width="4" stroke-linecap="round"/>
  <circle cx="27.5" cy="23.5" r="4.2" fill="#ffffff"/>
  <path d="M19.4 25c4.2-.4 6.9 1.6 8.1 4.8.9 2.5.9 5.5.9 8.8v10.6h-4.8V38.6c0-3.6-1.2-7.5-4.3-10.4-.8-.8-.8-2.6.1-2.7z" fill="#ffffff"/>
  <path d="M44.9 14.6a2.4 2.4 0 0 1 3.8 3L28 49.6a2.4 2.4 0 1 1-4-2.7z" fill="#ffffff" fill-opacity=".9"/>
  <path d="M30.8 33.4a2.4 2.4 0 0 1 4-.3l9.4 14.3a2.4 2.4 0 1 1-4 2.7l-9.4-14.3a2.4 2.4 0 0 1 0-2.4z" fill="#ffffff"/>
</svg>
